<svg xmlns="http://www.w3.org/2000/svg" width="200" height="200" fill="none"><g clip-path="url(#a)"><mask id="b" width="200" height="200" x="0" y="0" maskUnits="userSpaceOnUse" style="mask-type:luminance"><path fill="#fff" d="M200 0H0v200h200z"/></mask><g fill="#181D27" mask="url(#b)"><path d="M136 36c0 19.882-16.118 36-36 36S64 55.882 64 36 80.118 0 100 0s36 16.118 36 36m-38.77 68.53A135.84 135.84 0 0 0 .07 63.71v72.72a63.68 63.68 0 0 1 60.8 45 139.84 139.84 0 0 1 36.36-76.9"/><path d="M199.93 63.71v72.72A63.65 63.65 0 0 0 136.36 200H63.64c0-75.15 61.14-136.29 136.29-136.29"/></g></g><defs><clipPath id="a"><path fill="#fff" d="M0 0h200v200H0z"/></clipPath></defs></svg>